<svg width="100%" height="100%" viewBox="0 0 24 24" version="1.1" xmlns="http://www.w3.org/2000/svg" xmlns:xlink="http://www.w3.org/1999/xlink" xml:space="preserve" xmlns:serif="http://www.serif.com/" style="fill-rule:evenodd;clip-rule:evenodd;stroke-linejoin:round;stroke-miterlimit:2;">
    <g transform="matrix(1,0,0,1,-150,-33)">
        <g id="Backend-Theme---Model" serif:id="Backend Theme - Model" transform="matrix(0.24,0,0,0.24,149.52,33.24)">
            <rect x="2" y="-1" width="100" height="100" style="fill:none;"/>
            <g transform="matrix(4.166667,0,0,4.166667,-623,-138.5)">
                <path d="M162,38L156,42L159,44L156,45L159,47L156,48L162,52L168,48L165,47L168,45L165,44L168,42L162,38Z" style="fill:rgb(77,144,142);"/>
            </g>
            <g>
                <g transform="matrix(2.243646,0,0,2.243646,16.101655,13.101845)">
                    <path d="M16.023,3.001C15.84,2.996 15.659,3.042 15.5,3.133L4.5,9.485C4.192,9.664 4.001,9.994 4.001,10.35C4.001,10.706 4.192,11.037 4.5,11.215L7.893,13.174L4.5,15.133C4.191,15.312 4,15.643 4,16C4,16.357 4.191,16.687 4.5,16.866L7.893,18.823L4.5,20.782C4.191,20.96 4,21.291 4,21.648C4,22.005 4.191,22.336 4.5,22.514L15.5,28.866C15.809,29.044 16.191,29.044 16.5,28.866L27.5,22.514C27.809,22.336 28,22.005 28,21.648C28,21.291 27.809,20.96 27.5,20.782L24.107,18.823L27.5,16.866C27.809,16.687 28,16.357 28,16C28,15.643 27.809,15.312 27.5,15.133L24.107,13.174L27.5,11.215C27.808,11.037 27.999,10.706 27.999,10.35C27.999,9.994 27.808,9.664 27.5,9.485L16.5,3.133C16.355,3.05 16.191,3.004 16.023,3.001ZM16,5.155L25.002,10.35L16,15.547L6.998,10.35L16,5.155ZM9.895,14.331L15.5,17.567C15.809,17.745 16.191,17.745 16.5,17.567L22.106,14.331L25,16.001L16,21.196L7,16.001L9.895,14.331ZM9.893,19.979L15.5,23.215C15.809,23.394 16.191,23.394 16.5,23.215L22.107,19.979L25,21.649L16,26.844L7,21.649L9.893,19.979Z" style="fill-rule:nonzero;"/>
                </g>
                <g transform="matrix(4.166667,0,0,4.166667,-248,-1)">
                    <path d="M66,12L68,11L70,11L72,12L75,11L77,11L77,13L72,15L66,12" style="fill-opacity:0.4;"/>
                </g>
            </g>
        </g>
        <g id="Colors">
        </g>
    </g>
</svg>
